# xmcd
#
# Track frame offsets: 
#        150
#        14122
#        33560
#        45515
#        62370
#        95167
#        113352
#        125820
#        150882
#        171162
#        189505
#
# Disc length: 2800 seconds
#
# Revision: 3
# Processed by: cddbd v1.5.1PL2 Copyright (c) Steve Scherf et al.
# Submitted via: ExactAudioCopy v0.95b3
#
DISCID=890aee0b
DTITLE=Alvin Youngblood Hart - Territory
DYEAR=1998
DGENRE=Blues
TTITLE0=Tallacatcha
TTITLE1=Illinois Blues
TTITLE2=Ouachita Run
TTITLE3=Sallie, Queen of the Pines (For Walter Boyd's Mama)
TTITLE4=Countrycide (The Ballad of Ed and Charlie Brown)
TTITLE5=Ice Rose
TTITLE6=Dancing with Tears in My Eyes
TTITLE7=Mama Don't Allow
TTITLE8=John Hardy
TTITLE9=Just About to Go
TTITLE10=Underway at Seven
EXTD=CD: Hannibal (Rykodisc) HNCD 1431 (1998-06-23), UPC 031257143127.
EXTT0=
EXTT1=
EXTT2=
EXTT3=
EXTT4=
EXTT5=(Don Van Vliet]\nAlvin Youngblood Hart: electric guitars, lap st
EXTT5=eel guitar, synth guitar\nBill MacBeath: bass\nBarry Lowenthal: 
EXTT5=drums
EXTT6=
EXTT7=
EXTT8=
EXTT9=
EXTT10=
PLAYORDER=
